<svg width="133" height="151" viewBox="0 0 133 151" fill="none" xmlns="http://www.w3.org/2000/svg">
<path fill-rule="evenodd" clip-rule="evenodd" d="M66.5001 0C59.9882 0 49.1067 2.50094 38.8671 5.285C28.3914 8.11625 17.8309 11.4666 11.621 13.4956C9.02465 14.353 6.72284 15.9255 4.97998 18.0322C3.23712 20.139 2.12391 22.6947 1.76824 25.4057C-3.85651 67.6574 9.19555 98.9711 25.0317 119.686C31.7472 128.548 39.7544 136.351 48.7859 142.837C52.4287 145.413 55.8074 147.385 58.6764 148.735C61.3189 149.981 64.1596 151 66.5001 151C68.8406 151 71.6718 149.981 74.3237 148.735C77.7824 147.054 81.0913 145.081 84.2142 142.837C93.2459 136.352 101.253 128.548 107.968 119.686C123.805 98.9711 136.857 67.6574 131.232 25.4057C130.877 22.6934 129.764 20.1362 128.021 18.0278C126.278 15.9194 123.976 14.3453 121.379 13.4862C112.364 10.5305 103.28 7.79282 94.1331 5.27556C83.8934 2.51038 73.0119 0 66.5001 0ZM66.5001 47.1875C69.8432 47.1825 73.0802 48.3609 75.6378 50.5139C78.1954 52.6668 79.9085 55.6555 80.4736 58.9505C81.0388 62.2455 80.4196 65.6342 78.7257 68.5165C77.0318 71.3987 74.3725 73.5884 71.2188 74.6978L74.8522 93.4784C74.9844 94.1615 74.9639 94.8654 74.7922 95.5396C74.6205 96.2138 74.3018 96.8418 73.859 97.3784C73.4162 97.915 72.8601 98.3471 72.2308 98.6436C71.6014 98.9402 70.9142 99.0939 70.2184 99.0938H62.7817C62.0867 99.0925 61.4006 98.9378 60.7724 98.6406C60.1442 98.3435 59.5893 97.9112 59.1476 97.3748C58.7058 96.8383 58.3879 96.2109 58.2167 95.5373C58.0456 94.8638 58.0253 94.1607 58.1573 93.4784L61.7813 74.6978C58.6276 73.5884 55.9683 71.3987 54.2744 68.5165C52.5805 65.6342 51.9613 62.2455 52.5265 58.9505C53.0917 55.6555 54.8047 52.6668 57.3623 50.5139C59.9199 48.3609 63.1569 47.1825 66.5001 47.1875Z" fill="#C2C2C2"/>
</svg>
